<?xml version="1.0" encoding="utf-8"?>
<!-- Generator: Adobe Illustrator 15.0.0, SVG Export Plug-In . SVG Version: 6.00 Build 0)  -->
<!DOCTYPE svg PUBLIC "-//W3C//DTD SVG 1.1//EN" "http://www.w3.org/Graphics/SVG/1.1/DTD/svg11.dtd">
<svg version="1.1" id="Layer_1" xmlns="http://www.w3.org/2000/svg" xmlns:xlink="http://www.w3.org/1999/xlink" x="0px" y="0px"
	 width="569.633px" height="293.447px" viewBox="0 0 569.633 293.447" enable-background="new 0 0 569.633 293.447"
	 xml:space="preserve">
<g>
	<polygon fill="#57C6D2" points="239.297,93.688 286.687,46.844 239.048,0 144.269,93.688 239.048,187.377 286.687,140.532 	"/>
	<polygon fill="#F36C48" points="286.687,140.532 334.075,187.377 429.353,93.688 334.075,0 286.687,46.844 334.324,93.688 	"/>
	
		<linearGradient id="SVGID_1_" gradientUnits="userSpaceOnUse" x1="231.4082" y1="632.8486" x2="231.4082" y2="442.7939" gradientTransform="matrix(0 1 -1 0 777.1182 -137.7197)">
		<stop  offset="0" style="stop-color:#92C844"/>
		<stop  offset="1" style="stop-color:#FFF33E"/>
	</linearGradient>
	<polygon fill="url(#SVGID_1_)" points="286.687,140.532 334.324,93.688 286.687,46.844 239.297,93.688 	"/>
	<polygon fill="#C9489A" points="286.687,140.532 334.324,93.688 286.687,46.844 239.297,93.688 	"/>
</g>
<g>
	<path fill="#FFFFFF" d="M3.79,281.571h24.023v4.22H3.79v7.656H0v-19.531h3.79V281.571z"/>
	<path fill="#FFFFFF" d="M27.813,254.343H15.665v11.289h12.148v4.219H0v-4.219h11.876v-11.289H0v-4.219h27.813V254.343z"/>
	<path fill="#FFFFFF" d="M27.813,243.599H0v-17.773h3.79v13.554h8.125v-11.562h3.75v11.562h8.359v-13.554h3.789V243.599z"/>
</g>
<g>
	<path fill="#FFFFFF" d="M69.686,292.883H42.579v-67.017H68.65c12.424,0,20.236,7.06,20.236,18.354
		c0,7.248-4.518,12.424-9.036,14.213c5.177,2.07,10.071,7.059,10.071,15.53C89.922,286.295,81.545,292.883,69.686,292.883z
		 M67.803,234.996h-15.06v19.201h15.06c6.495,0,10.919-3.388,10.919-9.601C78.722,238.386,74.298,234.996,67.803,234.996z
		 M68.745,263.327H52.744v20.426h16.001c7.059,0,11.013-4.33,11.013-10.26C79.757,267.563,75.804,263.327,68.745,263.327z"/>
	<path fill="#FFFFFF" d="M141.968,292.883l-14.118-28.237h-12.707v28.237h-10.165v-67.017h25.978
		c12.707,0,20.801,8.189,20.801,19.578c0,9.601-5.835,15.72-13.366,17.79l15.437,29.648H141.968z M130.203,234.996h-15.06v20.99
		h15.06c6.777,0,11.389-3.859,11.389-10.447C141.592,238.949,136.98,234.996,130.203,234.996z"/>
	<path fill="#FFFFFF" d="M205.968,286.295c-4.612,4.611-10.542,7.152-17.695,7.152s-12.989-2.541-17.601-7.152
		c-6.588-6.59-6.495-14.025-6.495-26.92c0-12.896-0.094-20.331,6.495-26.919c4.612-4.612,10.448-7.153,17.601-7.153
		s13.083,2.541,17.695,7.153c6.588,6.588,6.4,14.023,6.4,26.919C212.368,272.27,212.556,279.705,205.968,286.295z M198.25,238.573
		c-2.353-2.542-6.024-4.142-9.977-4.142s-7.624,1.6-9.977,4.142c-3.294,3.577-3.953,7.343-3.953,20.802
		c0,13.46,0.659,17.225,3.953,20.801c2.353,2.542,6.024,4.142,9.977,4.142s7.624-1.6,9.977-4.142
		c3.294-3.576,3.954-7.341,3.954-20.801C202.203,245.916,201.544,242.15,198.25,238.573z"/>
	<path fill="#FFFFFF" d="M267.709,292.883l-18.825-33.038l-11.294,13.555v19.483h-10.166v-67.017h10.166v33.696l27.389-33.696
		h12.424l-21.742,26.261l24.001,40.756H267.709z"/>
	<path fill="#FFFFFF" d="M289.353,292.883v-67.017h42.825v9.13h-32.659v19.578h27.859v9.036h-27.859v20.143h32.659v9.13H289.353z"/>
	<path fill="#FFFFFF" d="M383.095,292.883l-14.118-28.237H356.27v28.237h-10.165v-67.017h25.978
		c12.707,0,20.801,8.189,20.801,19.578c0,9.601-5.835,15.72-13.365,17.79l15.437,29.648H383.095z M371.329,234.996h-15.06v20.99
		h15.06c6.777,0,11.389-3.859,11.389-10.447C382.718,238.949,378.106,234.996,371.329,234.996z"/>
	<path fill="#FFFFFF" d="M446.247,292.883l-4.612-13.46h-26.449l-4.612,13.46H399.75l24.566-67.017h8.188l24.566,67.017H446.247z
		 M428.646,241.021l-10.447,29.742h20.613L428.646,241.021z"/>
	<path fill="#FFFFFF" d="M505.823,285.823c-5.083,5.365-11.39,7.624-18.448,7.624c-6.965,0-12.989-2.541-17.601-7.152
		c-6.59-6.59-6.495-14.025-6.495-26.92c0-12.896-0.095-20.331,6.495-26.919c4.611-4.612,10.447-7.153,17.601-7.153
		c14.213,0,22.496,9.317,24.378,20.801h-10.26c-1.694-7.342-6.588-11.672-14.118-11.672c-3.953,0-7.53,1.6-9.883,4.142
		c-3.295,3.577-4.047,7.343-4.047,20.802c0,13.46,0.752,17.318,4.047,20.896c2.353,2.54,5.93,4.047,9.883,4.047
		c4.424,0,8.283-1.694,10.918-4.707c2.447-2.823,3.389-6.211,3.389-10.541v-3.765h-14.307v-8.66h24.472v10.26
		C511.847,275.564,510.247,281.117,505.823,285.823z"/>
	<path fill="#FFFFFF" d="M526.808,292.883v-67.017h42.825v9.13h-32.659v19.578h27.859v9.036h-27.859v20.143h32.659v9.13H526.808z"/>
</g>
</svg>
